<?xml version="1.0" encoding="UTF-8" standalone="no"?>
<!-- Created with Inkscape (http://www.inkscape.org/) -->

<svg
   width="800"
   height="800"
   viewBox="0 0 211.66666 211.66667"
   version="1.1"
   id="svg5"
   xmlns:xlink="http://www.w3.org/1999/xlink"
   xmlns="http://www.w3.org/2000/svg"
   xmlns:svg="http://www.w3.org/2000/svg">
  <defs
     id="defs2">
    <linearGradient
       id="linearGradient12203">
      <stop
         style="stop-color:#7bccea;stop-opacity:1;"
         offset="0"
         id="stop12199" />
      <stop
         style="stop-color:#ffffff;stop-opacity:1;"
         offset="1"
         id="stop12201" />
    </linearGradient>
    <linearGradient
       xlink:href="#linearGradient12203"
       id="linearGradient12205"
       x1="396.9747"
       y1="86.660103"
       x2="398.23059"
       y2="427.12354"
       gradientUnits="userSpaceOnUse" />
  </defs>
  <g
     id="layer1">
    <circle
       style="display:none;fill:#000000;fill-opacity:0;stroke:#000000;stroke-width:1.5;stroke-linejoin:round;stroke-dasharray:none;stroke-opacity:1;paint-order:markers stroke fill"
       id="path5270"
       cx="105.83334"
       cy="105.83334"
       r="83.361351" />
    <path
       class="UnoptimicedTransforms"
       style="fill:#9b9b9b;fill-opacity:1;stroke:none;stroke-width:1.4;stroke-linejoin:round;stroke-dasharray:none;paint-order:markers stroke fill"
       d="m 107.52407,100.0739 c -0.44935,-1.79173 4.57112,-5.09959 12.51624,-8.007654 3.06101,-1.133374 6.91485,-2.256788 11.24739,-2.600371 0.0814,-0.0057 0.16293,-0.01116 0.24449,-0.01624 4.31982,-0.269593 8.30683,0.401962 11.6757,1.523822 9.01614,3.035337 13.48728,7.670875 12.64161,9.503158 -0.84567,1.83229 -7.01224,0.37431 -14.7881,-0.671608 -2.7682,-0.371499 -5.81254,-0.60555 -8.87981,-0.393681 -0.0584,0.004 -0.1167,0.0082 -0.17491,0.01256 -3.07245,0.192485 -6.71397,0.882026 -9.68793,1.341306 -8.2389,1.31394 -14.28176,1.35389 -14.79468,-0.69129 z"
       id="path1170" />
    <path
       style="fill:#656565;fill-opacity:1;stroke:none;stroke-width:1.5;stroke-linejoin:round;paint-order:markers stroke fill"
       d="m 135.51254,108.93356 c 0.14272,0.76495 -1.65561,2.01576 -5.3228,2.84859 -3.79962,0.8629 -8.90771,1.11236 -15.39343,0.25592 -8.01291,-1.06755 -13.53534,-3.40471 -22.193727,-5.92489 -2.33137,-0.66748 -4.711515,-1.31256 -7.056194,-1.79795 -1.197426,-0.24789 -2.370474,-0.45118 -3.526762,-0.60002 -3.30815,-0.39834 -6.288797,-0.46782 -8.905691,0.16527 -4.713841,0.91738 -10.485041,4.76018 -14.702058,7.06759 0,0 -3e-6,0 -3e-6,0 -5.067104,2.96709 -9.215581,4.54687 -12.837142,5.00945 -3.388205,0.43277 -5.232086,-0.26866 -5.303548,-0.98328 -0.0789,-0.789 1.557859,-1.53282 3.97315,-3.01378 2.443195,-1.49806 5.685885,-4.02358 9.910578,-7.31005 0,0 3e-6,-10e-6 3e-6,-10e-6 3.601825,-2.98478 9.208667,-7.691581 16.499284,-9.993926 4.13321,-1.166835 8.414346,-1.348845 12.59021,-0.81925 1.449878,0.174305 2.885999,0.412031 4.3109,0.703077 2.799411,0.5718 5.459938,1.330068 7.942832,2.140616 8.384588,2.695559 15.077718,5.917503 20.862148,7.537273 6.29963,1.73379 9.70816,2.41204 13.64866,3.06093 3.30321,0.54395 5.34871,0.82434 5.50359,1.65444 z"
       id="path1162"
       class="UnoptimicedTransforms"
       transform="translate(3.4230508,-1.6108475)" />
    <path
       style="fill:#414141;fill-opacity:1;stroke:none;stroke-width:1.5;stroke-linejoin:round;paint-order:markers stroke fill"
       d="m 63.427117,123.43118 c 0.15917,1.07229 -1.952807,2.48106 -6.021831,2.18826 -2.252838,-0.11781 -4.71568,-0.62115 -7.528121,-1.4652 0,0 -10e-7,0 -10e-7,0 -5.239371,-1.55867 -9.761396,-3.59849 -15.767827,-6.09094 5.77e-4,2.4e-4 -0.155097,-0.0643 -0.15452,-0.0641 -2.664846,-1.10066 -4.973701,-2.03801 -7.315895,-2.83058 -2.36761,-0.78171 -4.274553,-1.34812 -6.154825,-1.61584 -1.965053,-0.25874 -3.457925,-0.31026 -4.820856,-0.0228 -2.963742,0.45352 -5.147762,2.44797 -6.1995172,1.84697 -0.5797805,-0.3313 -1.5148421,-3.96971 3.3126902,-7.53026 2.047338,-1.43372 4.753088,-2.45303 7.81119,-2.64509 2.812789,-0.2054 5.700276,0.083 8.605524,0.76663 2.895417,0.66376 5.73654,1.62583 8.581212,2.80638 0.05629,0.0233 0.112575,0.0467 0.168843,0.0701 5.738863,2.39155 11.444477,5.65276 15.14711,7.81144 0,0 2e-6,0 2e-6,0 1.904689,1.10113 3.925288,2.33283 5.829978,3.43396 2.467974,1.32402 4.403092,2.64209 4.506844,3.34104 z"
       id="path1166"
       class="UnoptimicedTransforms" />
    <path
       style="fill:#000000;fill-opacity:1;stroke:none;stroke-width:1.5;stroke-linejoin:round;paint-order:markers stroke fill"
       d="m 6.6447457,131.68678 c 0.413548,-0.81215 5.3139043,0.93323 13.8242973,3.44281 8.440701,2.48902 20.779934,5.69518 35.606168,6.6732 14.333839,0.89898 31.961299,-0.29339 47.404699,-8.13652 0.63809,-0.31362 1.27048,-0.65359 1.89861,-1.01753 3.1827,-1.84405 6.20272,-4.27516 9.13385,-6.82294 3.71122,-3.27197 7.21262,-6.6016 11.49283,-9.70262 6.69284,-4.83205 13.31679,-8.8966 20.43833,-11.81752 0,0 0,0 0,0 6.14552,-2.51924 12.31098,-3.78205 18.1761,-3.86554 6.83566,-0.0517 13.03337,1.40857 17.81602,2.92495 13.10649,4.13348 19.90434,8.33029 19.52435,9.39425 -0.37998,1.06396 -8.17691,-1.24273 -20.97722,-3.55387 -4.61116,-0.82231 -10.37526,-1.59981 -15.99971,-1.06537 -4.82473,0.4213 -9.87094,1.83912 -15.02706,4.23777 0,0 -1e-5,0 -1e-5,0 -6.12309,2.84288 -11.90459,6.75791 -18.2256,11.51524 -3.55453,2.67231 -6.71288,5.83426 -10.63067,9.34358 -3.13553,2.84479 -6.66976,5.67355 -10.71484,8.02886 -0.79699,0.46406 -1.6103,0.90773 -2.44108,1.32854 -17.999696,8.87767 -37.341738,9.69011 -52.685305,7.74936 C 39.484987,148.39459 26.939517,143.7955 18.659924,139.79657 10.38033,135.79764 6.2311977,132.49893 6.6447457,131.68678 Z"
       id="path843"
       class="UnoptimicedTransforms"
       transform="translate(0.60406779,-6.6447458)" />
    <path
       style="fill:#81d068;fill-opacity:1;stroke:#000000;stroke-width:0;stroke-linejoin:round;stroke-dasharray:none;stroke-opacity:1;paint-order:markers stroke fill"
       d="m 234.08641,511.39495 c -35.56434,-0.78341 -74.1658,-5.96571 -113.81443,-15.27975 -6.21539,-1.46008 -12.87475,-3.09535 -14.79856,-3.63391 l -3.49785,-0.97922 -0.98259,-2.92002 c -1.660067,-4.93325 -5.087352,-18.6409 -6.784706,-27.13585 -1.825251,-9.13505 -4.475198,-26.85761 -4.232232,-28.30471 0.294253,-1.75258 17.333758,4.36634 48.861418,17.54623 9.02712,3.77372 20.28749,8.37909 25.02303,10.23416 33.46035,13.10753 58.01358,17.29641 70.32908,11.99843 3.00586,-1.29309 5.81627,-4.22008 5.81627,-6.05754 0,-1.78859 -4.87678,-6.09897 -10.94413,-9.67306 -12.01127,-7.07546 -30.22983,-17.70962 -36.27483,-21.17358 l -6.59017,-3.77637 2.5542,-0.38161 c 4.67031,-0.69778 12.65412,-2.99312 18.88494,-5.42941 8.6222,-3.37135 17.599,-7.97816 35.76863,-18.35617 30.4271,-17.37914 40.87563,-21.58542 56.40673,-22.70775 19.54076,-1.41208 42.05017,2.98944 84.95151,16.61155 37.82818,12.01127 55.79029,15.96968 77.76563,17.13766 3.70526,0.19693 6.79375,0.48996 6.86332,0.65117 0.0696,0.16122 -3.01843,2.92784 -6.86221,6.14806 -3.84377,3.22021 -12.19823,10.48329 -18.56547,16.14019 -26.01659,23.11411 -36.13797,30.4891 -53.55091,39.02016 -31.96975,15.66283 -67.51274,25.10324 -108.41725,28.79624 -8.82541,0.79678 -35.68741,1.98522 -39.83747,1.7625 -1.0359,-0.0556 -4.66828,-0.16242 -8.07195,-0.2374 z"
       id="path8468"
       transform="scale(0.26458333)" />
    <path
       style="fill:#b3d8a7;fill-opacity:1;stroke:#000000;stroke-width:0;stroke-linejoin:round;stroke-dasharray:none;stroke-opacity:1;paint-order:markers stroke fill"
       d="m 487.81456,396.06706 c -14.26185,-2.9101 -39.60693,-9.48344 -44.50262,-11.54192 l -1.69229,-0.71155 3.45572,-0.36891 c 4.4082,-0.47059 17.88893,-2.43305 33.19788,-4.8328 20.7715,-3.25602 33.2427,-3.66721 50.1701,-1.65415 3.69964,0.43998 6.8477,0.80269 6.99568,0.80603 0.14799,0.003 -3.31088,1.94534 -7.68637,4.31555 -7.52298,4.07521 -20.84859,11.95411 -25.07296,14.82464 -1.06194,0.72161 -2.54053,1.29792 -3.28574,1.2807 -0.74522,-0.0172 -5.95595,-0.97014 -11.5794,-2.11759 z"
       id="path11575"
       transform="scale(0.26458333)" />
    <path
       style="fill:url(#linearGradient12205);fill-opacity:1;fill-rule:nonzero;stroke:#000000;stroke-width:0;stroke-linejoin:round;stroke-dasharray:none;stroke-opacity:1;paint-order:markers stroke fill"
       d="M 161.16984,419.17661 C 135.43813,406.54652 111.68934,399.03004 92.341275,397.3924 l -4.253003,-0.35998 0.342039,-10.03629 c 2.035219,-59.71851 23.726719,-121.95269 59.485709,-170.668 9.60603,-13.08652 18.40817,-23.32522 30.92333,-35.9702 34.71774,-35.07785 75.85668,-60.62164 122.78234,-76.2374 22.44503,-7.46918 42.71651,-11.830902 67.80434,-14.589152 10.21535,-1.123114 39.68026,-1.582632 50.92456,-0.794191 74.72527,5.239673 143.37099,35.725743 196.58546,87.305053 25.95591,25.15837 45.80967,52.31797 62.09907,84.95066 15.00639,30.06229 24.37539,59.63158 29.41234,92.82737 1.85778,12.24364 2.26848,17.75178 1.29592,17.37964 -0.41662,-0.15943 -6.08501,-2.03668 -12.59638,-4.17168 -18.77997,-6.1577 -33.97401,-9.63832 -50.85325,-11.64941 -10.42239,-1.24177 -29.35479,-1.25225 -39.26438,-0.0217 -7.61709,0.94585 -20.47269,3.41465 -26.38744,5.06746 l -3.49785,0.97744 -4.30503,-2.87732 c -8.49471,-5.67752 -22.43482,-12.12188 -33.90726,-15.67496 -11.55141,-3.57754 -21.523,-5.03577 -34.43521,-5.03577 -17.39218,0 -33.28353,3.24875 -53.74433,10.98723 -17.76739,6.7198 -35.24428,15.93119 -40.16564,21.16973 -0.69164,0.73621 -1.48996,1.33857 -1.77404,1.33857 -0.28408,0 -5.14558,-1.72758 -10.80332,-3.83908 -49.56917,-18.49943 -81.4493,-23.7102 -109.87221,-17.95849 -19.3434,3.91435 -40.11892,15.01125 -63.9764,34.17192 -13.61275,10.93282 -28.99408,22.74024 -36.14246,27.74466 -6.15001,4.30547 -18.07403,11.57456 -18.85403,11.49372 -0.25327,-0.0263 -3.85071,-1.71177 -7.99431,-3.7456 z"
       id="path12146"
       transform="scale(0.26458333)" />
    <path
       style="fill:#40ae1c;fill-opacity:1;fill-rule:nonzero;stroke:#000000;stroke-width:0;stroke-linejoin:round;stroke-dasharray:none;stroke-opacity:1;paint-order:markers stroke fill"
       d="m 370.15618,710.44558 c -100.85404,-10.48242 -188.74526,-66.8208 -239.5673,-153.56292 -4.79834,-8.18973 -18.32459,-35.46239 -17.83224,-35.95474 0.17089,-0.17089 5.60667,1.40695 12.0795,3.50631 30.29893,9.82698 65.15282,17.03713 99.6678,20.61805 15.00883,1.55716 64.38693,1.30101 78.76663,-0.40861 32.29594,-3.83969 58.36179,-10.23846 86.03354,-21.11992 30.37203,-11.94329 47.7198,-23.46602 80.73552,-53.6261 19.32602,-17.65445 23.73554,-21.3793 36.80655,-31.09157 45.789,-34.023 80.62334,-50.29444 116.8076,-54.56188 10.37506,-1.2236 35.12693,-0.43706 48.6028,1.54444 5.79741,0.85246 17.01309,2.79343 24.92375,4.31327 l 14.383,2.76334 v 11.96744 c 0,37.76906 -9.09691,80.55593 -25.06083,117.87238 -26.83433,62.72659 -73.6284,114.95308 -133.23348,148.70084 -11.79568,6.67859 -17.67696,9.58356 -30.56395,15.09659 -26.80205,11.46587 -53.87407,18.7832 -85.87368,23.2109 -12.21724,1.69047 -53.13243,2.13976 -66.67521,0.73218 z"
       id="path12375"
       transform="scale(0.26458333)" />
  </g>
</svg>
